<svg width="24" height="24" viewBox="0 0 24 24" fill="none" xmlns="http://www.w3.org/2000/svg">
<path d="M2.57143 16.2857C3.51821 16.2857 4.28572 15.1344 4.28572 13.7143C4.28572 12.2941 3.51821 11.1429 2.57143 11.1429C1.62466 11.1429 0.857147 12.2941 0.857147 13.7143C0.857147 15.1344 1.62466 16.2857 2.57143 16.2857Z" stroke="#DEE2E6" stroke-width="1.71429" stroke-linecap="round" stroke-linejoin="round"/>
<path d="M7.71429 8.57142C8.66106 8.57142 9.42857 7.42015 9.42857 5.99999C9.42857 4.57983 8.66106 3.42856 7.71429 3.42856C6.76751 3.42856 6 4.57983 6 5.99999C6 7.42015 6.76751 8.57142 7.71429 8.57142Z" stroke="#DEE2E6" stroke-width="1.71429" stroke-linecap="round" stroke-linejoin="round"/>
<path d="M16.2857 8.57142C17.2325 8.57142 18 7.42015 18 5.99999C18 4.57983 17.2325 3.42856 16.2857 3.42856C15.339 3.42856 14.5714 4.57983 14.5714 5.99999C14.5714 7.42015 15.339 8.57142 16.2857 8.57142Z" stroke="#DEE2E6" stroke-width="1.71429" stroke-linecap="round" stroke-linejoin="round"/>
<path d="M21.4286 16.2857C22.3754 16.2857 23.1429 15.1344 23.1429 13.7143C23.1429 12.2941 22.3754 11.1429 21.4286 11.1429C20.4818 11.1429 19.7143 12.2941 19.7143 13.7143C19.7143 15.1344 20.4818 16.2857 21.4286 16.2857Z" stroke="#DEE2E6" stroke-width="1.71429" stroke-linecap="round" stroke-linejoin="round"/>
<path d="M17.1429 17.1429C17.1429 19.5086 14.3657 20.5714 12 20.5714C9.63429 20.5714 6.85715 19.5086 6.85715 17.1429C6.85715 14.7771 8.57143 11.1429 12 11.1429C15.4286 11.1429 17.1429 14.7771 17.1429 17.1429Z" stroke="#DEE2E6" stroke-width="1.71429" stroke-linecap="round" stroke-linejoin="round"/>
</svg>
